<?xml version="1.0" encoding="UTF-8"?>
<svg viewBox="0 0 800 600" class="w-full h-full" xmlns="http://www.w3.org/2000/svg"><defs><marker id="arrowhead" markerWidth="10" markerHeight="7" refX="9" refY="3.5" orient="auto"><polygon points="0 0, 10 3.5, 0 7" fill="#64748b"/></marker></defs><text x="400" y="30" text-anchor="middle" class="text-xl font-bold" fill="#1e293b">AWS ECS Fargate Architecture</text><rect x="50" y="60" width="700" height="500" fill="#eff6ff" stroke="#3b82f6" stroke-width="2" rx="5"/><text x="70" y="85" class="font-semibold" fill="#1e40af">Default VPC</text><rect x="80" y="100" width="640" height="180" fill="#dbeafe" stroke="#60a5fa" stroke-width="1.5" rx="5"/><text x="100" y="125" class="font-medium" fill="#1e40af">Public Subnets</text><rect x="110" y="140" width="280" height="120" fill="#fff" stroke="#f59e0b" stroke-width="2" rx="5"/><text x="130" y="165" class="font-medium" fill="#92400e">Security Group (ecs-hello-sg)</text><text x="130" y="185" class="text-sm" fill="#92400e">Ingress: 0.0.0.0/0:80</text><text x="130" y="205" class="text-sm" fill="#92400e">Egress: 0.0.0.0/0 (all)</text><rect x="140" y="220" width="220" height="30" fill="#10b981" stroke="#065f46" stroke-width="1.5" rx="3"/><text x="250" y="240" text-anchor="middle" class="text-sm font-semibold" fill="#fff">ECS Fargate Task (nginx)</text><rect x="420" y="140" width="280" height="120" fill="#fff" stroke="#8b5cf6" stroke-width="2" rx="5"/><text x="440" y="165" class="font-medium" fill="#5b21b6">ECS Cluster</text><text x="440" y="185" class="text-sm" fill="#5b21b6">Name: hello-cluster</text><text x="440" y="210" class="text-sm" fill="#5b21b6">Service: hello-service</text><text x="440" y="235" class="text-sm" fill="#5b21b6">Desired Count: 1</text><line x1="360" y1="235" x2="420" y2="200" stroke="#64748b" stroke-width="2" marker-end="url(#arrowhead)"/><rect x="80" y="310" width="300" height="120" fill="#fff" stroke="#ec4899" stroke-width="2" rx="5"/><text x="100" y="335" class="font-medium" fill="#9f1239">CloudWatch Logs</text><text x="100" y="360" class="text-sm" fill="#9f1239">Log Group: /ecs/hello</text><text x="100" y="385" class="text-sm" fill="#9f1239">Retention: 7 days</text><text x="100" y="410" class="text-sm" fill="#9f1239">Stream Prefix: hello</text><rect x="420" y="310" width="300" height="120" fill="#fff" stroke="#f59e0b" stroke-width="2" rx="5"/><text x="440" y="335" class="font-medium" fill="#92400e">CloudWatch Alarm</text><text x="440" y="360" class="text-sm" fill="#92400e">Metric: CPU Utilization</text><text x="440" y="385" class="text-sm" fill="#92400e">Threshold: 80%</text><text x="440" y="410" class="text-sm" fill="#92400e">SNS: alarm-topic</text><rect x="80" y="460" width="300" height="80" fill="#fff" stroke="#06b6d4" stroke-width="2" rx="5"/><text x="100" y="485" class="font-medium" fill="#0e7490">S3 Bucket</text><text x="100" y="510" class="text-sm" fill="#0e7490">Encryption: AES256, Versioning: On</text><text x="100" y="530" class="text-sm" fill="#0e7490">Public Access: Blocked</text><rect x="420" y="460" width="300" height="80" fill="#fff" stroke="#ef4444" stroke-width="2" rx="5"/><text x="440" y="485" class="font-medium" fill="#991b1b">IAM Role</text><text x="440" y="510" class="text-sm" fill="#991b1b">hello-ecsTaskExecutionRole</text><text x="440" y="530" class="text-sm" fill="#991b1b">Policy: ECSTaskExecutionRolePolicy</text><line x1="250" y1="250" x2="220" y2="310" stroke="#64748b" stroke-width="2" marker-end="url(#arrowhead)"/><line x1="560" y1="260" x2="570" y2="310" stroke="#64748b" stroke-width="2" marker-end="url(#arrowhead)"/><line x1="560" y1="260" x2="570" y2="460" stroke="#64748b" stroke-width="2" stroke-dasharray="5,5" marker-end="url(#arrowhead)"/><ellipse cx="400" cy="30" rx="60" ry="20" fill="#cbd5e1" stroke="#475569" stroke-width="2"/><text x="400" y="35" text-anchor="middle" class="text-sm font-semibold" fill="#1e293b">Internet</text><line x1="400" y1="50" x2="250" y2="140" stroke="#64748b" stroke-width="2" marker-end="url(#arrowhead)"/></svg>