<?xml version="1.0" encoding="UTF-8"?>
<svg viewBox="0 0 800 600" class="w-full h-full" xmlns="http://www.w3.org/2000/svg"><defs><marker id="arrowhead3" markerWidth="10" markerHeight="7" refX="9" refY="3.5" orient="auto"><polygon points="0 0, 10 3.5, 0 7" fill="#64748b"/></marker></defs><text x="400" y="30" text-anchor="middle" class="text-xl font-bold" fill="#1e293b">Data Flow &amp; Dependencies</text><ellipse cx="400" cy="80" rx="80" ry="30" fill="#f1f5f9" stroke="#64748b" stroke-width="2"/><text x="400" y="85" text-anchor="middle" class="font-semibold" fill="#1e293b">HTTP Request</text><rect x="320" y="140" width="160" height="50" fill="#cbd5e1" stroke="#475569" stroke-width="2" rx="5"/><text x="400" y="170" text-anchor="middle" class="font-semibold" fill="#1e293b">Internet Gateway</text><rect x="320" y="220" width="160" height="50" fill="#fef3c7" stroke="#f59e0b" stroke-width="2" rx="5"/><text x="400" y="250" text-anchor="middle" class="font-semibold" fill="#92400e">Security Group</text><rect x="320" y="300" width="160" height="50" fill="#dbeafe" stroke="#3b82f6" stroke-width="2" rx="5"/><text x="400" y="330" text-anchor="middle" class="font-semibold" fill="#1e40af">ECS Task (NGINX)</text><rect x="80" y="380" width="160" height="80" fill="#fce7f3" stroke="#ec4899" stroke-width="2" rx="5"/><text x="160" y="410" text-anchor="middle" class="font-semibold" fill="#9f1239">CloudWatch</text><text x="160" y="430" text-anchor="middle" class="font-semibold" fill="#9f1239">Logs</text><text x="160" y="450" text-anchor="middle" class="text-xs" fill="#9f1239">(awslogs driver)</text><rect x="320" y="380" width="160" height="80" fill="#fef3c7" stroke="#f59e0b" stroke-width="2" rx="5"/><text x="400" y="410" text-anchor="middle" class="font-semibold" fill="#92400e">CloudWatch</text><text x="400" y="430" text-anchor="middle" class="font-semibold" fill="#92400e">Metrics</text><text x="400" y="450" text-anchor="middle" class="text-xs" fill="#92400e">(CPU Usage)</text><rect x="560" y="380" width="160" height="80" fill="#dcfce7" stroke="#10b981" stroke-width="2" rx="5"/><text x="640" y="410" text-anchor="middle" class="font-semibold" fill="#065f46">SNS Topic</text><text x="640" y="430" text-anchor="middle" class="text-xs" fill="#065f46">If CPU &gt; 80%</text><text x="640" y="450" text-anchor="middle" class="text-xs" fill="#065f46">Email Alert</text><rect x="560" y="300" width="160" height="50" fill="#fee2e2" stroke="#ef4444" stroke-width="2" rx="5"/><text x="640" y="330" text-anchor="middle" class="font-semibold" fill="#991b1b">IAM Role</text><line x1="400" y1="110" x2="400" y2="140" stroke="#64748b" stroke-width="2" marker-end="url(#arrowhead3)"/><line x1="400" y1="190" x2="400" y2="220" stroke="#64748b" stroke-width="2" marker-end="url(#arrowhead3)"/><line x1="400" y1="270" x2="400" y2="300" stroke="#64748b" stroke-width="2" marker-end="url(#arrowhead3)"/><line x1="380" y1="350" x2="240" y2="380" stroke="#ec4899" stroke-width="2" marker-end="url(#arrowhead3)"/><text x="290" y="370" class="text-xs font-semibold" fill="#9f1239">Container Logs</text><line x1="400" y1="350" x2="400" y2="380" stroke="#f59e0b" stroke-width="2" marker-end="url(#arrowhead3)"/><text x="410" y="370" class="text-xs font-semibold" fill="#92400e">CPU Metrics</text><line x1="480" y1="420" x2="560" y2="420" stroke="#10b981" stroke-width="2" marker-end="url(#arrowhead3)"/><text x="490" y="410" class="text-xs font-semibold" fill="#065f46">Alarm Trigger</text><line x1="560" y1="325" x2="480" y2="325" stroke="#ef4444" stroke-width="2" stroke-dasharray="5,5" marker-end="url(#arrowhead3)"/><text x="490" y="315" class="text-xs font-semibold" fill="#991b1b">Assumes Role</text><line x1="320" y1="325" x2="120" y2="325" stroke="#10b981" stroke-width="3" marker-end="url(#arrowhead3)"/><text x="190" y="315" class="text-sm font-bold" fill="#065f46">HTTP Response</text><rect x="50" y="500" width="700" height="80" fill="#f8fafc" stroke="#cbd5e1" stroke-width="1" rx="5"/><text x="70" y="525" class="font-bold text-sm" fill="#1e293b">Data Flow Legend:</text><line x1="70" y1="545" x2="130" y2="545" stroke="#64748b" stroke-width="2" marker-end="url(#arrowhead3)"/><text x="140" y="550" class="text-xs" fill="#475569">Request Flow</text><line x1="250" y1="545" x2="310" y2="545" stroke="#ec4899" stroke-width="2" marker-end="url(#arrowhead3)"/><text x="320" y="550" class="text-xs" fill="#475569">Logging</text><line x1="410" y1="545" x2="470" y2="545" stroke="#f59e0b" stroke-width="2" marker-end="url(#arrowhead3)"/><text x="480" y="550" class="text-xs" fill="#475569">Monitoring</text><line x1="570" y1="545" x2="630" y2="545" stroke="#ef4444" stroke-width="2" stroke-dasharray="5,5" marker-end="url(#arrowhead3)"/><text x="640" y="550" class="text-xs" fill="#475569">IAM Permission</text></svg>