<?xml version="1.0" encoding="UTF-8"?>
<svg viewBox="0 0 800 700" class="w-full h-full" xmlns="http://www.w3.org/2000/svg"><defs><marker id="arrowhead2" markerWidth="10" markerHeight="7" refX="9" refY="3.5" orient="auto"><polygon points="0 0, 10 3.5, 0 7" fill="#64748b"/></marker></defs><text x="400" y="30" text-anchor="middle" class="text-xl font-bold" fill="#1e293b">Terraform Module Structure</text><rect x="300" y="60" width="200" height="100" fill="#3b82f6" stroke="#1e40af" stroke-width="2" rx="5"/><text x="400" y="90" text-anchor="middle" class="font-bold text-lg" fill="#fff">Root Module</text><text x="400" y="115" text-anchor="middle" class="text-sm" fill="#dbeafe">main.tf</text><text x="400" y="135" text-anchor="middle" class="text-sm" fill="#dbeafe">variables.tf</text><rect x="50" y="230" width="180" height="140" fill="#8b5cf6" stroke="#5b21b6" stroke-width="2" rx="5"/><text x="140" y="255" text-anchor="middle" class="font-bold" fill="#fff">ECS Module</text><text x="60" y="280" class="text-xs" fill="#e9d5ff">• Cluster</text><text x="60" y="300" class="text-xs" fill="#e9d5ff">• Service</text><text x="60" y="320" class="text-xs" fill="#e9d5ff">• Task Definition</text><text x="60" y="340" class="text-xs" fill="#e9d5ff">• IAM Role</text><text x="60" y="360" class="text-xs" fill="#e9d5ff">• Exports JSON</text><rect x="260" y="230" width="180" height="140" fill="#ec4899" stroke="#9f1239" stroke-width="2" rx="5"/><text x="350" y="255" text-anchor="middle" class="font-bold" fill="#fff">CloudWatch</text><text x="270" y="280" class="text-xs" fill="#fce7f3">• Log Group</text><text x="270" y="300" class="text-xs" fill="#fce7f3">• SNS Topic</text><text x="270" y="320" class="text-xs" fill="#fce7f3">• CPU Alarm</text><text x="270" y="340" class="text-xs" fill="#fce7f3">• Email Subscription</text><rect x="470" y="230" width="180" height="140" fill="#06b6d4" stroke="#0e7490" stroke-width="2" rx="5"/><text x="560" y="255" text-anchor="middle" class="font-bold" fill="#fff">S3 Module</text><text x="480" y="280" class="text-xs" fill="#cffafe">• Bucket</text><text x="480" y="300" class="text-xs" fill="#cffafe">• Versioning</text><text x="480" y="320" class="text-xs" fill="#cffafe">• Encryption</text><text x="480" y="340" class="text-xs" fill="#cffafe">• Public Block</text><rect x="260" y="410" width="180" height="140" fill="#10b981" stroke="#065f46" stroke-width="2" rx="5"/><text x="350" y="435" text-anchor="middle" class="font-bold" fill="#fff">Verify Module</text><text x="270" y="460" class="text-xs" fill="#d1fae5">• Check Cluster</text><text x="270" y="480" class="text-xs" fill="#d1fae5">• Check Task Def</text><text x="270" y="500" class="text-xs" fill="#d1fae5">• Check Log Group</text><text x="270" y="520" class="text-xs" fill="#d1fae5">• Null Resources</text><line x1="350" y1="160" x2="140" y2="230" stroke="#64748b" stroke-width="2" marker-end="url(#arrowhead2)"/><line x1="400" y1="160" x2="350" y2="230" stroke="#64748b" stroke-width="2" marker-end="url(#arrowhead2)"/><line x1="450" y1="160" x2="560" y2="230" stroke="#64748b" stroke-width="2" marker-end="url(#arrowhead2)"/><line x1="400" y1="160" x2="350" y2="410" stroke="#64748b" stroke-width="2" marker-end="url(#arrowhead2)"/><text x="220" y="195" class="text-xs font-semibold" fill="#64748b">subnet_ids,</text><text x="220" y="210" class="text-xs font-semibold" fill="#64748b">security_groups</text><text x="405" y="195" class="text-xs font-semibold" fill="#64748b">cluster_name,</text><text x="405" y="210" class="text-xs font-semibold" fill="#64748b">alarm_email</text><rect x="50" y="590" width="700" height="80" fill="#fef3c7" stroke="#f59e0b" stroke-width="2" rx="5"/><text x="70" y="615" class="font-bold" fill="#92400e">Terraform Test (tests/verify.tftest.hcl)</text><text x="70" y="640" class="text-sm" fill="#92400e">Validates: ECS Cluster Status, Task Definition, CloudWatch Logs</text><text x="70" y="660" class="text-sm" fill="#92400e">Command: terraform test</text></svg>